<svg xmlns="http://www.w3.org/2000/svg" width="600" height="180" viewBox="0 0 600 180" preserveAspectRatio="xMidYMid meet" role="img" aria-label="CanQuest" version="1.0"><defs><filter x="0%" y="0%" width="100%" height="100%" id="fc5195f4da"><feColorMatrix values="0 0 0 0 1 0 0 0 0 1 0 0 0 0 1 0 0 0 1 0" color-interpolation-filters="sRGB"/></filter><g/><clipPath id="783a77c47c"><path d="M 0.910156 0 L 434.558594 0 L 434.558594 180 L 0.910156 180 Z M 0.910156 0 " clip-rule="nonzero"/></clipPath><clipPath id="900d49b628"><path d="M 0.910156 0 L 434.558594 0 L 434.558594 180 L 0.910156 180 Z M 0.910156 0 " clip-rule="nonzero"/></clipPath><clipPath id="60a4125019"><path d="M 0.910156 0 L 434.558594 0 L 434.558594 180 L 0.910156 180 Z M 0.910156 0 " clip-rule="nonzero"/></clipPath><linearGradient x1="-694.115312" gradientTransform="matrix(0.164666, 0, 0, 0.16472, 178.635256, 27.901009)" y1="1308.57046" x2="1169.017605" gradientUnits="userSpaceOnUse" y2="-554.565769" id="466e4039d2"><stop stop-opacity="1" stop-color="rgb(98.039246%, 93.328857%, 12.939453%)" offset="0"/><stop stop-opacity="1" stop-color="rgb(98.039246%, 93.328857%, 12.939453%)" offset="0.25"/><stop stop-opacity="1" stop-color="rgb(98.039246%, 93.328857%, 12.939453%)" offset="0.293259"/><stop stop-opacity="1" stop-color="rgb(98.039246%, 93.328857%, 12.939453%)" offset="0.375"/><stop stop-opacity="1" stop-color="rgb(98.039246%, 93.328857%, 12.939453%)" offset="0.390625"/><stop stop-opacity="1" stop-color="rgb(97.029114%, 93.270874%, 12.69989%)" offset="0.394531"/><stop stop-opacity="1" stop-color="rgb(96.018982%, 93.212891%, 12.460327%)" offset="0.398438"/><stop stop-opacity="1" stop-color="rgb(94.000244%, 93.096924%, 11.979675%)" offset="0.402344"/><stop stop-opacity="1" stop-color="rgb(91.981506%, 92.980957%, 11.500549%)" offset="0.40625"/><stop stop-opacity="1" stop-color="rgb(89.962769%, 92.86499%, 11.021423%)" offset="0.410156"/><stop stop-opacity="1" stop-color="rgb(87.944031%, 92.749023%, 10.542297%)" offset="0.414062"/><stop stop-opacity="1" stop-color="rgb(85.925293%, 92.633057%, 10.063171%)" offset="0.417969"/><stop stop-opacity="1" stop-color="rgb(83.906555%, 92.51709%, 9.584045%)" offset="0.421875"/><stop stop-opacity="1" stop-color="rgb(81.887817%, 92.401123%, 9.104919%)" offset="0.425781"/><stop stop-opacity="1" stop-color="rgb(79.86908%, 92.285156%, 8.625793%)" offset="0.429688"/><stop stop-opacity="1" stop-color="rgb(77.850342%, 92.169189%, 8.146667%)" offset="0.433594"/><stop stop-opacity="1" stop-color="rgb(75.831604%, 92.054749%, 7.667542%)" offset="0.4375"/><stop stop-opacity="1" stop-color="rgb(73.812866%, 91.938782%, 7.188416%)" offset="0.441406"/><stop stop-opacity="1" stop-color="rgb(71.794128%, 91.822815%, 6.70929%)" offset="0.445312"/><stop stop-opacity="1" stop-color="rgb(69.773865%, 91.706848%, 6.230164%)" offset="0.449219"/><stop stop-opacity="1" stop-color="rgb(67.755127%, 91.590881%, 5.751038%)" offset="0.453125"/><stop stop-opacity="1" stop-color="rgb(65.736389%, 91.474915%, 5.270386%)" offset="0.457031"/><stop stop-opacity="1" stop-color="rgb(63.717651%, 91.358948%, 4.79126%)" offset="0.460938"/><stop stop-opacity="1" stop-color="rgb(61.698914%, 91.242981%, 4.312134%)" offset="0.464844"/><stop stop-opacity="1" stop-color="rgb(59.680176%, 91.127014%, 3.833008%)" offset="0.46875"/><stop stop-opacity="1" stop-color="rgb(57.661438%, 91.011047%, 3.353882%)" offset="0.472656"/><stop stop-opacity="1" stop-color="rgb(55.6427%, 90.895081%, 2.874756%)" offset="0.476562"/><stop stop-opacity="1" stop-color="rgb(53.623962%, 90.779114%, 2.39563%)" offset="0.480469"/><stop stop-opacity="1" stop-color="rgb(51.605225%, 90.663147%, 1.916504%)" offset="0.484375"/><stop stop-opacity="1" stop-color="rgb(49.586487%, 90.54718%, 1.437378%)" offset="0.488281"/><stop stop-opacity="1" stop-color="rgb(47.567749%, 90.431213%, 0.958252%)" offset="0.492188"/><stop stop-opacity="1" stop-color="rgb(45.549011%, 90.315247%, 0.479126%)" offset="0.496094"/><stop stop-opacity="1" stop-color="rgb(43.530273%, 90.19928%, 0%)" offset="0.5"/><stop stop-opacity="1" stop-color="rgb(41.917419%, 90.562439%, 3.701782%)" offset="0.503906"/><stop stop-opacity="1" stop-color="rgb(40.306091%, 90.925598%, 7.40509%)" offset="0.507812"/><stop stop-opacity="1" stop-color="rgb(38.693237%, 91.287231%, 11.108398%)" offset="0.511719"/><stop stop-opacity="1" stop-color="rgb(37.080383%, 91.650391%, 14.811707%)" offset="0.515625"/><stop stop-opacity="1" stop-color="rgb(35.467529%, 92.01355%, 18.515015%)" offset="0.519531"/><stop stop-opacity="1" stop-color="rgb(33.856201%, 92.376709%, 22.219849%)" offset="0.523437"/><stop stop-opacity="1" stop-color="rgb(32.243347%, 92.739868%, 25.923157%)" offset="0.527344"/><stop stop-opacity="1" stop-color="rgb(30.632019%, 93.103027%, 29.626465%)" offset="0.53125"/><stop stop-opacity="1" stop-color="rgb(29.019165%, 93.466187%, 33.329773%)" offset="0.535156"/><stop stop-opacity="1" stop-color="rgb(27.407837%, 93.829346%, 37.034607%)" offset="0.539062"/><stop stop-opacity="1" stop-color="rgb(25.794983%, 94.190979%, 40.737915%)" offset="0.542969"/><stop stop-opacity="1" stop-color="rgb(24.183655%, 94.554138%, 44.441223%)" offset="0.546875"/><stop stop-opacity="1" stop-color="rgb(22.570801%, 94.917297%, 48.144531%)" offset="0.550781"/><stop stop-opacity="1" stop-color="rgb(20.959473%, 95.280457%, 51.847839%)" offset="0.554688"/><stop stop-opacity="1" stop-color="rgb(19.346619%, 95.643616%, 55.551147%)" offset="0.558594"/><stop stop-opacity="1" stop-color="rgb(17.735291%, 96.006775%, 59.255981%)" offset="0.5625"/><stop stop-opacity="1" stop-color="rgb(16.122437%, 96.368408%, 62.95929%)" offset="0.566406"/><stop stop-opacity="1" stop-color="rgb(14.511108%, 96.731567%, 66.662598%)" offset="0.570312"/><stop stop-opacity="1" stop-color="rgb(12.898254%, 97.094727%, 70.365906%)" offset="0.574219"/><stop stop-opacity="1" stop-color="rgb(11.286926%, 97.457886%, 74.069214%)" offset="0.578125"/><stop stop-opacity="1" stop-color="rgb(9.674072%, 97.821045%, 77.772522%)" offset="0.582031"/><stop stop-opacity="1" stop-color="rgb(8.062744%, 98.184204%, 81.477356%)" offset="0.585938"/><stop stop-opacity="1" stop-color="rgb(6.44989%, 98.547363%, 85.180664%)" offset="0.589844"/><stop stop-opacity="1" stop-color="rgb(4.837036%, 98.910522%, 88.883972%)" offset="0.59375"/><stop stop-opacity="1" stop-color="rgb(3.224182%, 99.272156%, 92.58728%)" offset="0.597656"/><stop stop-opacity="1" stop-color="rgb(1.612854%, 99.635315%, 96.290588%)" offset="0.601562"/><stop stop-opacity="1" stop-color="rgb(0.805664%, 99.816895%, 98.144531%)" offset="0.605469"/><stop stop-opacity="1" stop-color="rgb(0%, 100%, 100%)" offset="0.609375"/><stop stop-opacity="1" stop-color="rgb(0%, 100%, 100%)" offset="0.625"/><stop stop-opacity="1" stop-color="rgb(0%, 100%, 100%)" offset="0.706741"/><stop stop-opacity="1" stop-color="rgb(0%, 100%, 100%)" offset="0.75"/><stop stop-opacity="1" stop-color="rgb(0%, 100%, 100%)" offset="1"/></linearGradient><clipPath id="9e12b7ffb4"><rect x="0" width="435" y="0" height="180"/></clipPath><clipPath id="93735e6921"><path d="M 0.910156 0 L 434.558594 0 L 434.558594 180 L 0.910156 180 Z M 0.910156 0 " clip-rule="nonzero"/></clipPath><clipPath id="cd8959662d"><rect x="0" width="435" y="0" height="180"/></clipPath><clipPath id="e107295f31"><rect x="0" width="435" y="0" height="180"/></clipPath><mask id="c4f25edcea"><g filter="url(#fc5195f4da)"><g><g clip-path="url(#e107295f31)"><g clip-path="url(#93735e6921)"><g><g clip-path="url(#cd8959662d)"><g fill="#000000" fill-opacity="1"><g transform="translate(178.618629, 125.493092)"><g><path d="M 17.78125 -71.09375 L 60.4375 -71.09375 C 63.039062 -71.09375 65.421875 -70.457031 67.578125 -69.1875 C 69.742188 -67.914062 71.460938 -66.195312 72.734375 -64.03125 C 74.015625 -61.875 74.65625 -59.488281 74.65625 -56.875 L 74.65625 -14.21875 C 74.65625 -11.664062 74.015625 -9.304688 72.734375 -7.140625 C 71.460938 -4.984375 69.757812 -3.253906 67.625 -1.953125 C 65.5 -0.648438 63.101562 0 60.4375 0 L 46.21875 0 L 46.21875 7.109375 L 32 7.109375 L 32 0 L 17.78125 0 C 15.164062 0 12.773438 -0.632812 10.609375 -1.90625 C 8.453125 -3.1875 6.738281 -4.90625 5.46875 -7.0625 C 4.195312 -9.226562 3.5625 -11.613281 3.5625 -14.21875 L 3.5625 -56.875 C 3.5625 -59.488281 4.195312 -61.875 5.46875 -64.03125 C 6.738281 -66.195312 8.453125 -67.914062 10.609375 -69.1875 C 12.773438 -70.457031 15.164062 -71.09375 17.78125 -71.09375 Z M 46.21875 -14.21875 L 60.4375 -14.21875 L 60.4375 -56.875 L 17.78125 -56.875 L 17.78125 -14.21875 L 32 -14.21875 L 32 -28.4375 L 46.21875 -28.4375 Z M 46.21875 -14.21875 "/></g></g></g></g></g></g></g></g></g></mask><clipPath id="9e326e4023"><path d="M 0.910156 0 L 434.558594 0 L 434.558594 180 L 0.910156 180 Z M 0.910156 0 " clip-rule="nonzero"/></clipPath><clipPath id="b244a0cc4c"><rect x="0" width="435" y="0" height="180"/></clipPath><clipPath id="5bab04188d"><rect x="0" width="435" y="0" height="180"/></clipPath><clipPath id="24223c8b62"><rect x="0" width="435" y="0" height="180"/></clipPath><clipPath id="b5a058e51d"><rect x="0" width="226" y="0" height="102"/></clipPath><clipPath id="60ed380e6a"><rect x="0" width="299" y="0" height="102"/></clipPath><clipPath id="446e59fc58"><rect x="0" width="600" y="0" height="180"/></clipPath></defs><g transform="matrix(1, 0, 0, 1, 0, 0)"><g clip-path="url(#446e59fc58)"><g transform="matrix(1, 0, 0, 1, 45, 0)"><g clip-path="url(#24223c8b62)"><g clip-path="url(#783a77c47c)"><g><g clip-path="url(#5bab04188d)"><g clip-path="url(#900d49b628)"><g mask="url(#c4f25edcea)"><g><g clip-path="url(#b244a0cc4c)"><g clip-path="url(#9e326e4023)"><path fill="url(#466e4039d2)" d="M 0.910156 0 L 0.910156 180 L 434.558594 180 L 434.558594 0 Z M 0.910156 0 " fill-rule="nonzero"/></g></g></g></g></g></g></g></g></g></g><g transform="matrix(1, 0, 0, 1, 0, 38)"><g clip-path="url(#b5a058e51d)"><g fill="#ffffff" fill-opacity="1"><g transform="translate(0.0293025, 82.703215)"><g><path d="M 71.140625 0 L 16.9375 0 C 14.457031 0 12.1875 -0.601562 10.125 -1.8125 C 8.0625 -3.03125 6.421875 -4.671875 5.203125 -6.734375 C 3.992188 -8.796875 3.390625 -11.066406 3.390625 -13.546875 L 3.390625 -54.203125 C 3.390625 -56.679688 3.992188 -58.953125 5.203125 -61.015625 C 6.421875 -63.078125 8.0625 -64.710938 10.125 -65.921875 C 12.1875 -67.140625 14.457031 -67.75 16.9375 -67.75 L 71.140625 -67.75 L 71.140625 -54.203125 L 16.9375 -54.203125 L 16.9375 -13.546875 L 71.140625 -13.546875 Z M 71.140625 0 "/></g></g></g><g fill="#ffffff" fill-opacity="1"><g transform="translate(74.537083, 82.703215)"><g><path d="M 16.9375 -67.75 L 57.59375 -67.75 C 60.070312 -67.75 62.34375 -67.140625 64.40625 -65.921875 C 66.46875 -64.710938 68.101562 -63.078125 69.3125 -61.015625 C 70.53125 -58.953125 71.140625 -56.679688 71.140625 -54.203125 L 71.140625 0 L 57.59375 0 L 57.59375 -27.09375 L 16.9375 -27.09375 L 16.9375 0 L 3.390625 0 L 3.390625 -54.203125 C 3.390625 -56.679688 3.992188 -58.953125 5.203125 -61.015625 C 6.421875 -63.078125 8.0625 -64.710938 10.125 -65.921875 C 12.1875 -67.140625 14.457031 -67.75 16.9375 -67.75 Z M 16.9375 -54.203125 L 16.9375 -40.65625 L 57.59375 -40.65625 L 57.59375 -54.203125 Z M 16.9375 -54.203125 "/></g></g></g><g fill="#ffffff" fill-opacity="1"><g transform="translate(149.044864, 82.703215)"><g><path d="M 16.9375 0 L 3.390625 0 L 3.390625 -60.96875 C 3.390625 -62.832031 4.050781 -64.425781 5.375 -65.75 C 6.707031 -67.082031 8.300781 -67.75 10.15625 -67.75 C 12.019531 -67.75 13.628906 -67.070312 14.984375 -65.71875 L 57.59375 -23.125 L 57.59375 -67.75 L 71.140625 -67.75 L 71.140625 -6.78125 C 71.140625 -4.914062 70.472656 -3.316406 69.140625 -1.984375 C 67.816406 -0.660156 66.222656 0 64.359375 0 C 62.492188 0 60.882812 -0.675781 59.53125 -2.03125 L 16.9375 -44.625 Z M 16.9375 0 "/></g></g></g></g></g><g transform="matrix(1, 0, 0, 1, 301, 38)"><g clip-path="url(#60ed380e6a)"><g fill="#ffffff" fill-opacity="1"><g transform="translate(0.894733, 82.703215)"><g><path d="M 57.59375 0 L 16.9375 0 C 14.457031 0 12.1875 -0.601562 10.125 -1.8125 C 8.0625 -3.03125 6.421875 -4.671875 5.203125 -6.734375 C 3.992188 -8.796875 3.390625 -11.066406 3.390625 -13.546875 L 3.390625 -67.75 L 16.9375 -67.75 L 16.9375 -13.546875 L 57.59375 -13.546875 L 57.59375 -67.75 L 71.140625 -67.75 L 71.140625 -13.546875 C 71.140625 -11.066406 70.53125 -8.796875 69.3125 -6.734375 C 68.101562 -4.671875 66.46875 -3.03125 64.40625 -1.8125 C 62.34375 -0.601562 60.070312 0 57.59375 0 Z M 57.59375 0 "/></g></g></g><g fill="#ffffff" fill-opacity="1"><g transform="translate(75.402514, 82.703215)"><g><path d="M 71.140625 -67.75 L 71.140625 -54.203125 L 16.9375 -54.203125 L 16.9375 -40.65625 L 71.140625 -40.65625 L 71.140625 -27.09375 L 16.9375 -27.09375 L 16.9375 -13.546875 L 71.140625 -13.546875 L 71.140625 0 L 16.9375 0 C 14.457031 0 12.1875 -0.601562 10.125 -1.8125 C 8.0625 -3.03125 6.421875 -4.671875 5.203125 -6.734375 C 3.992188 -8.796875 3.390625 -11.066406 3.390625 -13.546875 L 3.390625 -54.203125 C 3.390625 -56.679688 3.992188 -58.953125 5.203125 -61.015625 C 6.421875 -63.078125 8.0625 -64.710938 10.125 -65.921875 C 12.1875 -67.140625 14.457031 -67.75 16.9375 -67.75 Z M 71.140625 -67.75 "/></g></g></g><g fill="#ffffff" fill-opacity="1"><g transform="translate(149.910295, 82.703215)"><g><path d="M 71.140625 -67.75 L 71.140625 -54.203125 L 16.9375 -54.203125 L 16.9375 -40.65625 L 57.59375 -40.65625 C 60.070312 -40.65625 62.34375 -40.046875 64.40625 -38.828125 C 66.46875 -37.617188 68.101562 -35.984375 69.3125 -33.921875 C 70.53125 -31.859375 71.140625 -29.582031 71.140625 -27.09375 L 71.140625 -13.546875 C 71.140625 -11.066406 70.53125 -8.796875 69.3125 -6.734375 C 68.101562 -4.671875 66.46875 -3.03125 64.40625 -1.8125 C 62.34375 -0.601562 60.070312 0 57.59375 0 L 3.390625 0 L 3.390625 -13.546875 L 57.59375 -13.546875 L 57.59375 -27.09375 L 16.9375 -27.09375 C 14.457031 -27.09375 12.1875 -27.695312 10.125 -28.90625 C 8.0625 -30.125 6.421875 -31.765625 5.203125 -33.828125 C 3.992188 -35.890625 3.390625 -38.164062 3.390625 -40.65625 L 3.390625 -54.203125 C 3.390625 -56.679688 3.992188 -58.953125 5.203125 -61.015625 C 6.421875 -63.078125 8.0625 -64.710938 10.125 -65.921875 C 12.1875 -67.140625 14.457031 -67.75 16.9375 -67.75 Z M 71.140625 -67.75 "/></g></g></g><g fill="#ffffff" fill-opacity="1"><g transform="translate(224.418076, 82.703215)"><g><path d="M 71.140625 -67.75 L 71.140625 -54.203125 L 44.03125 -54.203125 L 44.03125 0 L 30.484375 0 L 30.484375 -54.203125 L 3.390625 -54.203125 L 3.390625 -67.75 Z M 71.140625 -67.75 "/></g></g></g></g></g></g></g></svg>